/* XPM */ 
static const char *nx_icon[] = {
"16 16 5 1",
" 	c None",
"!	c black",
"#	c #FF0000",
"$	c #424242",
"%	c #750202",
"                ",
"############### ",
"#             #$",
"# #% #######% #$",
"# #% #%%#%%#% #$",
"# #% #% #% #% #$",
"# #% #% #% #% #$",
"# #% #% #% #% #$",
"# %% #% #% #% #$",
"#    #% #% #% #$",
"# #% #% #% #% #$",
"# %% %% %% %% #$",
"#             #$",
"###############$",
" $$$$$$$$$$$$$$$",
"                "};
