/* XPM */
static char *iceweasel[] = {
/* columns rows colors chars-per-pixel */
"32 32 190 2 ",
"   c #1F1F20",
".  c #222223",
"X  c #3C5E3E",
"o  c #3E5E72",
"O  c gray36",
"+  c #44714C",
"@  c #456A52",
"#  c #435F6A",
"$  c #445C78",
"%  c #44626D",
"&  c #446862",
"*  c #496672",
"=  c #516377",
"-  c #777777",
";  c #2216A4",
":  c #2617B4",
">  c #2A1BB7",
",  c #2B1CBC",
"<  c #2E21AC",
"1  c #382EA3",
"2  c #382ABA",
"3  c #3A3BB4",
"4  c #3C33BD",
"5  c #3E3CBF",
"6  c #463AAF",
"7  c #4134BC",
"8  c #493DBC",
"9  c #423FBA",
"0  c #3E5186",
"q  c #3B4495",
"w  c #3F40B2",
"e  c #414F8F",
"r  c #425684",
"t  c #445987",
"y  c #404B97",
"u  c #4A5698",
"i  c #4C52A6",
"p  c #515BA5",
"a  c #5850A8",
"s  c #4F42BF",
"d  c #5246BF",
"f  c #5C52B9",
"g  c #4955BC",
"h  c #4673AD",
"j  c #547FB3",
"k  c #2F1EC1",
"l  c #3222C4",
"z  c #3425C9",
"x  c #3B2CCC",
"c  c #392CC4",
"v  c #3D32C3",
"b  c #4334C3",
"n  c #453AC1",
"m  c #4B3EC3",
"M  c #4234CB",
"N  c #493BCB",
"B  c #4032D1",
"V  c #4E41C4",
"C  c #4A48C6",
"Z  c #564BC4",
"A  c #564ACB",
"S  c #5549C6",
"D  c #5D52C4",
"F  c #5D52CB",
"G  c #5353C1",
"H  c #5345D3",
"J  c #5A4DD3",
"K  c #5448D8",
"L  c #5D50D1",
"P  c #635AC5",
"I  c #655CCC",
"U  c #655BC6",
"Y  c #6559D4",
"T  c #675DDA",
"R  c #5A67C5",
"E  c #6C62CB",
"W  c #6D66CB",
"Q  c #756CCC",
"!  c #756CC7",
"~  c #6D7ECA",
"^  c #7E75CE",
"/  c #707EC8",
"(  c #6E63D1",
")  c #6E64D8",
"_  c #766BDA",
"`  c #7369D6",
"'  c #7D74D2",
"]  c #7A7AD6",
"[  c #827ACF",
"{  c #837BD2",
"}  c #837AD8",
"|  c #847BE1",
" . c #887FE0",
".. c #598199",
"X. c #5C84B4",
"o. c #7684AC",
"O. c #7885A6",
"+. c #6A8DBD",
"@. c #6783BE",
"#. c #7388B7",
"$. c #6F91BE",
"%. c #7D92B5",
"&. c #7394BF",
"*. c #7688C6",
"=. c #7395C1",
"-. c #7D9DC4",
";. c #7F96C8",
":. c #858585",
">. c #8594AF",
",. c #8D9DBD",
"<. c #8A9DBA",
"1. c #A9ACAE",
"2. c #B6B6B6",
"3. c #8888C3",
"4. c #938CCC",
"5. c #8298C3",
"6. c #8B83D4",
"7. c #8B84DA",
"8. c #888AD7",
"9. c #908AD4",
"0. c #9992D7",
"q. c #9C95DA",
"w. c #9F99DA",
"e. c #9790D6",
"r. c #A39DDA",
"t. c #8BA4CB",
"y. c #8DA6C8",
"u. c #93ACCE",
"i. c #9AAACA",
"p. c #9FB1C9",
"a. c #92A8D0",
"s. c #9BB3D1",
"d. c #A8B8CC",
"f. c #A6A1DE",
"g. c #AAA5DD",
"h. c #A3B5D5",
"j. c #A3B9D6",
"k. c #AABDD2",
"l. c #A5B7DA",
"z. c #B8B5DA",
"x. c #A2A8C7",
"c. c #9087E3",
"v. c #9D96E7",
"b. c #A49DEA",
"n. c #A49DE2",
"m. c #AAA4E7",
"M. c #B3AEE2",
"N. c #BFBAEB",
"B. c #BBB6E6",
"V. c #B7B2F1",
"C. c #C3BEEA",
"Z. c #C0BCE5",
"A. c #C3BFF0",
"S. c #ADC2DC",
"D. c #B4C6DE",
"F. c #BBC6D7",
"G. c #BCCCE2",
"H. c #BFD0E4",
"J. c #C6CFDB",
"K. c #C5C2DF",
"L. c #C4CFE2",
"P. c #CECBE7",
"I. c #C5C1EA",
"U. c #C9C5E6",
"Y. c #CDD9E9",
"T. c #C6D3E5",
"R. c #D1DBEA",
"E. c #D3D0EE",
"W. c #CBC7F3",
"Q. c #D1CEF4",
"!. c #D5D4F3",
"~. c #D9D6F2",
"^. c #DDDAF4",
"/. c #D6E0EE",
"(. c #D9E2EF",
"). c #D7E4F1",
"_. c #DBE6F2",
"`. c #DDE8F4",
"'. c #E2E3E6",
"]. c #E4ECF4",
"[. c #E8EEF5",
"{. c #EFEDFB",
"}. c #E8E6F8",
"|. c #ECF1F6",
" X c #ECF2F8",
".X c #F3F5F6",
"XX c #F2F5FB",
"oX c #F6F9FC",
"OX c #FDFEFE",
"+X c None",
/* pixels */
"+X+X+X+X+X+X+X+X+X+X+X+X+X+X+X+X+X+X=.L.j.+X&.t.j +X+X+X+X+X+X+X",
"+X+X+X+X+X+X+X+X+X+X+X+X+X+X+X+X+X+X].].XXOXoXOXoXD.$.+X+X+X+X+X",
"+X+X+X+X+X+X+X+X+X+X+X+X+.-.a.s.D.).XXOXOXOX]..XOXOXoX+.-.+X+X+X",
"+X+X+X+X+X+X+X+X+Xj.].OXOXOXOXOXOXOXOXOXOXOXOXOXOX XoXoX XXX+X+X",
"+X+X+X+X+X+X+X+X/.OXOXOXOXOXOXOXOXOXOXOX1.F.OXoX X|.OXOXOX].t.+X",
"+X+X+X+X+X+X+XG.OXOXOX].j.<.#.#.#.5.[.OX  = OXOXOXJ.OXOXOXXX+X+X",
"+X+X+X+X+X+X+.OXOX].%.i 4.z.U.P.K.z.J.oXoX|.OXOXk.. 1.OXOXs.+X+X",
"+X+X+X+X+X+Xj.OXJ.q U q.g.M.z.Z.B.B.i.`.oXOXOXOXOX2.oXOXu.+X+X+X",
"+X+X+X+X+X+XT.OXo.f [ 9.0.r.g.g.g.r.3.].(.OXOXOXOXoXXXG.+X+X+X+X",
"+X+X+X+X+X+XR.OXo.U [ e.6.e.r.g.g.r.6.o.|.- :..X_.`.T.+X+X+X+X+X",
"+X+X+X+X+Xo R.OXO.D ! ~.E.q.r.q.r.q.r.3.<.:.O '.).@.+X+X+X+X+X+X",
"+X+X+X+X+Xc P.OXO. X! I.Z.^ [ { [ [ ! E a >.<.p ; l % +X+X+X+X+X",
"+X+X+X+Xr k L.oX<.[ d D { { ^ ' ^ Q W P Z 6 ! 8 r., 4 +X+X+X+X+X",
"+X+X+X+X4 , h.XXd.1 9 f W 0.[ ^ ^ Q U P s D oX! > 2 z + +X+X+X+X",
"+X+X+X+Xz > =.R.x.< 7 d P 7.0.} { Q U P P F 6.4 : : l y +X+X+X+X",
"+X+X+X% l , 3 ,.u 2 7 s P ' M.q.7.[ { { P 2 8 V > : , 3 +X+X+X+X",
"+X+X+X0 l : > 5 V 2 7 Z I [ I.}.~.Z.q.Y m 7 b S > > , 5 +X+X+X+X",
"+X+X+Xe l , , C m 4 n Z I } ~.OXOXC.Q F m 4 n A , , , v +X+X+X+X",
"+X+X+X$ l , k C +.=.*.C ( q.^.oX.Xn.( F V b V V k k k 4 +X+X+X+X",
"+X+X+X& z k l g h j =.s.5.7.} m.C.7.I A N v A b l , l 6 +X+X+X+X",
"+X+X+X+Xx , l v +.$.u.D.R.G.*.' } n.) A C c F z z l z t +X+X+X+X",
"+X+X+X+Xs x l N t.t.S.R.[.oXOXG./ 7.7.F A H L z v k C ..+X+X+X+X",
"+X+X+X+X* x N | N.5.Y.[.oXOXOXOXOXz.;._ Y ) Y H z z j.+X+X+X+X+X",
"+X+X+X+X+Xn x J | !.t.XXOXOXOXOXOXOXXXB.] XX) K M R Y.+X+X+X+X+X",
"+X+X+X+X+X+XB J ) Q.v.5. XOXOXOXOXOXOXOX].l.~ R *.(.u.+X+X+X+X+X",
"+X+X+X+X+X+X* K _ | v.v.3.F.oXOXOXoXoXXX X X].].`.H.+X+X+X+X+X+X",
"+X+X+X+X+X+X+X* T c.m.m.V.M.%.d.]. X|.].]._._._.S.+X+X+X+X+X+X+X",
"+X+X+X+X+X+X+X+X@ I v.V.N.Q.!.P.x.%.y.u.s.a.-.X.+X+X+X+X+X+X+X+X",
"+X+X+X+X+X+X+X+X+X+X* ) v.A.}.XX{.!.m.] p +X+X+X+X+X+X+X+X+X+X+X",
"+X+X+X+X+X+X+X+X+X+X+X+X+X# t p u $ X +X+X+X+X+X+X+X+X+X+X+X+X+X",
"+X+X+X+X+X+X+X+X+X+X+X+X+X+X+X+X+X+X+X+X+X+X+X+X+X+X+X+X+X+X+X+X",
"+X+X+X+X+X+X+X+X+X+X+X+X+X+X+X+X+X+X+X+X+X+X+X+X+X+X+X+X+X+X+X+X"
};
